g CityWall_1_5
v 3.3615732 0.36869574 -1.8527243
v 3.4749706 0.36869574 -1.9001014
v 3.475153 0.36869577 -1.0284231
v 3.3615832 0.36869577 -1.0284231
v 3.4751575 -4.4703484E-08 -1.0284231
v 3.475153 0.36869577 -1.0284231
v 3.4749706 0.36869574 -1.9001014
v 3.4749706 -7.4505806E-08 -1.9001014
v 3.4751534 0.36869586 1.0284221
v 3.4749715 0.36869586 1.9073505
v 3.361574 0.36869586 1.8527229
v 3.3615837 0.36869586 1.0284221
v 3.475153 0.36869577 -0.8241399
v 3.4751575 -2.9802322E-08 -0.82414
v 3.475158 4.4703484E-08 0.824139
v 3.4751534 0.36869586 0.8241389
v 3.4751534 0.36869586 0.8241389
v 3.3615837 0.36869586 0.824139
v 3.3615832 0.36869577 -0.82414
v 3.475153 0.36869577 -0.8241399
v 3.475158 4.4703484E-08 1.0284221
v 3.4749715 4.4703484E-08 1.9073505
v 3.4749715 0.36869586 1.9073505
v 3.4751534 0.36869586 1.0284221
v 3.1442585 0.36869538 -1.7481585
v 3.2052197 0.36869538 -1.7733686
v 3.2052763 0.36869547 0.6483061
v 3.1442506 0.36869547 0.6483085
v 3.2052765 0.28811055 0.83350337
v 3.2052202 0.28811055 1.7735388
v 3.2052202 0.36869547 1.7735388
v 3.2052765 0.3686955 0.83350337
v 3.1442595 0.36869547 1.7447798
v 3.1442506 0.3686955 0.83350176
v 3.2052765 0.3686955 0.83350337
v 3.2052202 0.36869547 1.7735388
v 3.2052197 0.28811046 -1.7733686
v 3.2052763 0.28811055 0.6483061
v 3.2052763 0.36869547 0.6483061
v 3.2052197 0.36869538 -1.7733686
v 3.2052765 0.3686955 0.83350337
v 3.1442506 0.3686955 0.83350176
v 3.1442506 0.28811055 0.8335034
v 3.2052765 0.28811055 0.83350337
v -3.4751534 0.36869574 -1.0284221
v -3.4749715 0.3686957 -1.9001005
v -3.3615742 0.3686957 -1.8527232
v -3.3615837 0.36869574 -1.0284221
v -3.3615742 0.3686957 -1.8527232
v -3.3615742 0.2881104 -1.8527232
v -3.3615837 0.28811046 -1.0284221
v -3.3615837 0.36869574 -1.0284221
v -3.3615735 0.36869597 1.8527244
v -3.4749706 0.36869603 1.9073522
v -3.475153 0.36869583 1.0284231
v -3.3615832 0.36869583 1.0284231
v -3.3615832 0.28811055 1.0284231
v -3.3615735 0.28811073 1.8527244
v -3.3615735 0.36869597 1.8527244
v -3.3615832 0.36869583 1.0284231
v -3.3615837 0.36869574 -0.82413906
v -3.3615832 0.36869583 0.8241399
v -3.475153 0.36869583 0.8241398
v -3.4751534 0.36869574 -0.82413894
v -3.3615832 0.28811055 0.8241399
v -3.3615832 0.36869583 0.8241399
v -3.3615837 0.36869574 -0.82413906
v -3.3615837 0.2881105 -0.82413906
v -3.2052763 0.36869547 0.648307
v -3.2052205 0.3686953 -1.7733679
v -3.1442595 0.3686953 -1.7481573
v -3.1442504 0.36869547 0.6483093
v -3.1442502 2.9802322E-08 0.8335008
v -3.1442585 1.7881393E-07 1.7447813
v -3.1442585 0.3686956 1.7447813
v -3.1442502 0.36869547 0.8335026
v -3.205276 0.36869547 0.83350426
v -3.1442502 0.36869547 0.8335026
v -3.1442585 0.3686956 1.7447813
v -3.2052193 0.36869562 1.7735405
v -3.1442504 0.36869547 0.6483093
v -3.1442595 0.3686953 -1.7481573
v -3.1442595 -1.1920929E-07 -1.7481573
v -3.1442504 2.9802322E-08 0.6483093
v -3.205276 0.36869547 0.83350426
v -3.205276 0.28811055 0.83350426
v -3.1442502 0.28811055 0.83350426
v -3.1442502 0.36869547 0.8335026
v 1.8510807 0.36869603 3.3632169
v 1.8980677 0.36869603 3.4770045
v 1.028423 0.36869597 3.475153
v 1.028423 0.36869597 3.3615832
v 1.028423 0.28811067 3.3615832
v 1.8510807 0.28811073 3.3632169
v 1.8510807 0.36869603 3.3632169
v 1.028423 0.36869597 3.3615832
v -1.028422 0.36869597 3.4751534
v -1.9053171 0.3686962 3.4770055
v -1.8510793 0.36869615 3.3632178
v -1.028422 0.36869597 3.3615837
v -1.8510793 0.36869615 3.3632178
v -1.8510793 0.28811085 3.3632178
v -1.028422 0.28811067 3.3615837
v -1.028422 0.36869597 3.3615837
v -0.8241389 0.36869597 3.4751534
v -0.8241389 0.36869597 3.3615837
v 0.82413983 0.36869597 3.3615832
v 0.82413983 0.36869597 3.475153
v -0.8241389 0.28811067 3.3615837
v 0.82413983 0.28811067 3.3615832
v 0.82413983 0.36869597 3.3615832
v -0.8241389 0.36869597 3.3615837
v 1.7472217 0.36869562 3.1451957
v 1.7722801 0.3686956 3.2063086
v -0.17383161 0.3686956 3.2057924
v -0.17623454 0.36869562 3.1447232
v -0.8335036 0.3686956 3.2052765
v -0.83350194 0.3686956 3.1442509
v -0.8335002 1.4901161E-07 3.1442509
v -0.83350194 0.3686956 3.1442509
v -1.7438427 0.36869577 3.1451964
v -1.7438427 3.2782555E-07 3.1451964
v -1.7438427 0.36869577 3.1451964
v -0.83350194 0.3686956 3.1442509
v -0.8335036 0.3686956 3.2052765
v -1.7724501 0.36869577 3.2063093
v -0.17623454 0.36869562 3.1447232
v -0.83350194 0.3686956 3.1442509
v -0.8335002 1.4901161E-07 3.1442509
v -0.17623454 1.7881393E-07 3.1447232
v 1.7472217 0.36869562 3.1451957
v 1.7472217 1.7881393E-07 3.1451957
v -1.8497448 0.36869568 -3.3652287
v -1.8967315 0.36869568 -3.4790165
v -0.7257081 0.36869562 -3.4791763
v -0.7257081 0.36869562 -3.365606
v -0.7257081 -1.7881393E-07 -3.4791763
v -0.7257081 0.36869562 -3.4791763
v -1.8967315 0.36869568 -3.4790165
v -1.8967315 -1.4901161E-07 -3.4790165
v 0.7201617 0.36869562 -3.4791763
v 1.896138 0.36869562 -3.479017
v 1.8497592 0.36869562 -3.3652294
v 0.7201617 0.36869562 -3.3656065
v 0.7201617 -1.7881393E-07 -3.4791763
v 1.896138 -1.7881393E-07 -3.479017
v 1.896138 0.36869562 -3.479017
v 0.7201617 0.36869562 -3.4791763
v -1.7462108 0.36869532 -3.1461139
v -1.7712691 0.36869532 -3.2072272
v -0.72463214 0.3686953 -3.2071128
v -0.7244471 0.3686953 -3.1460867
v 0.71638244 0.28811032 -3.2071128
v 1.7713512 0.28811038 -3.2072277
v 1.7713512 0.3686953 -3.2072277
v 0.71638244 0.3686953 -3.2071128
v 1.7463058 0.3686953 -3.1461143
v 0.7162679 0.3686953 -3.1460867
v 0.71638244 0.3686953 -3.2071128
v 1.7713512 0.3686953 -3.2072277
v -1.7712691 0.2881104 -3.2072272
v -0.72463214 0.28811032 -3.2071128
v -0.72463214 0.3686953 -3.2071128
v -1.7712691 0.36869532 -3.2072272
v 3.4749715 4.4703484E-08 1.9073505
v 1.8980677 2.0861626E-07 3.4770045
v 1.8980677 0.36869603 3.4770045
v 3.4749715 0.36869586 1.9073505
v 1.8510807 0.36869603 3.3632169
v 3.361574 0.36869586 1.8527229
v 3.4749715 0.36869586 1.9073505
v 1.8980677 0.36869603 3.4770045
v 3.361574 0.28811055 1.8527229
v 3.361574 0.36869586 1.8527229
v 1.8510807 0.36869603 3.3632169
v 1.8510807 0.28811073 3.3632169
v 3.2052202 0.36869547 1.7735388
v 1.7722801 0.3686956 3.2063086
v 1.7472217 0.36869562 3.1451957
v 3.1442595 0.36869547 1.7447798
v 1.7472217 0.36869562 3.1451957
v 1.7472217 1.7881393E-07 3.1451957
v 3.1442595 5.9604645E-08 1.7447798
v 3.1442595 0.36869547 1.7447798
v 3.2052202 0.28811055 1.7735388
v 1.7722801 0.28811067 3.2063086
v 1.7722801 0.3686956 3.2063086
v 3.2052202 0.36869547 1.7735388
v -3.4749706 0.36869603 1.9073522
v -3.3615735 0.36869597 1.8527244
v -1.8510793 0.36869615 3.3632178
v -1.9053171 0.3686962 3.4770055
v -3.3615735 0.28811073 1.8527244
v -1.8510793 0.28811085 3.3632178
v -1.8510793 0.36869615 3.3632178
v -3.3615735 0.36869597 1.8527244
v -1.7438427 0.36869577 3.1451964
v -1.7724501 0.36869577 3.2063093
v -3.2052193 0.36869562 1.7735405
v -3.1442585 0.3686956 1.7447813
v -1.7438427 3.2782555E-07 3.1451964
v -1.7438427 0.36869577 3.1451964
v -3.1442585 0.3686956 1.7447813
v -3.1442585 1.7881393E-07 1.7447813
v 1.896138 0.36869562 -3.479017
v 1.896138 -1.7881393E-07 -3.479017
v 3.4749706 -7.4505806E-08 -1.9001014
v 3.4749706 0.36869574 -1.9001014
v 3.4749706 0.36869574 -1.9001014
v 3.3615732 0.36869574 -1.8527243
v 1.8497592 0.36869562 -3.3652294
v 1.896138 0.36869562 -3.479017
v 1.7463058 0.3686953 -3.1461143
v 1.7713512 0.3686953 -3.2072277
v 3.2052197 0.36869538 -1.7733686
v 3.1442585 0.36869538 -1.7481585
v 3.2052197 0.28811046 -1.7733686
v 3.2052197 0.36869538 -1.7733686
v 1.7713512 0.3686953 -3.2072277
v 1.7713512 0.28811038 -3.2072277
v -3.4749715 -1.1920929E-07 -1.9001005
v -1.8967315 -1.4901161E-07 -3.4790165
v -1.8967315 0.36869568 -3.4790165
v -3.4749715 0.3686957 -1.9001005
v -1.8497448 0.36869568 -3.3652287
v -3.3615742 0.3686957 -1.8527232
v -3.4749715 0.3686957 -1.9001005
v -1.8967315 0.36869568 -3.4790165
v -3.3615742 0.2881104 -1.8527232
v -3.3615742 0.3686957 -1.8527232
v -1.8497448 0.36869568 -3.3652287
v -1.8497448 0.28811044 -3.3652287
v -3.2052205 0.3686953 -1.7733679
v -1.7712691 0.36869532 -3.2072272
v -1.7462108 0.36869532 -3.1461139
v -3.1442595 0.3686953 -1.7481573
v -1.7462108 0.36869532 -3.1461139
v -1.7462108 -1.4901161E-07 -3.1461139
v -3.1442595 -1.1920929E-07 -1.7481573
v -3.1442595 0.3686953 -1.7481573
v -3.2052205 0.28811038 -1.7733679
v -1.7712691 0.2881104 -3.2072272
v -1.7712691 0.36869532 -3.2072272
v -3.2052205 0.3686953 -1.7733679
v 3.3615832 0.2881099 -1.8527336
v 3.3615837 0.28811023 1.853076
v 3.2047534 0.28811023 1.7735057
v 3.2047527 0.28810993 -1.7731636
v 3.3615837 0.28811023 1.853076
v 1.8546216 0.2881103 3.36188
v 1.771603 0.2881103 3.2047524
v 3.2047534 0.28811023 1.7735057
v 1.8505697 0.28810972 -3.3659208
v 3.3615832 0.2881099 -1.8527336
v 3.2047527 0.28810993 -1.7731636
v 1.770999 0.28810972 -3.2069178
v 0.64130914 0.28810966 -3.366065
v 1.8505697 0.28810972 -3.3659208
v 1.770999 0.28810972 -3.2069178
v 0.64131963 0.28810966 -3.2053905
v -3.2047532 0.28810993 1.7735068
v -3.363729 0.28810996 1.8530767
v -3.3637276 0.2881096 -1.8527323
v -3.2047532 0.28810963 -1.7731631
v -3.363729 0.28810996 1.8530767
v -3.2047532 0.28810993 1.7735068
v -1.7716017 0.28811014 3.204753
v -1.8546201 0.28811014 3.3618803
v -1.8505691 0.28810954 -3.3659196
v -1.7709996 0.28810957 -3.2069173
v -3.2047532 0.28810963 -1.7731631
v -3.3637276 0.2881096 -1.8527323
v -1.7709996 0.28810957 -3.2069173
v -1.8505691 0.28810954 -3.3659196
v -0.64666235 0.2881096 -3.3660643
v -0.6466735 0.2881096 -3.20539
v 1.8546216 0.2881103 3.36188
v -1.8546201 0.28811014 3.3618803
v -1.7716017 0.28811014 3.204753
v 1.771603 0.2881103 3.2047524
v 3.5660462 0.40457517 -1.0284231
v 3.5660462 0.4045752 -0.82414
v 3.3615832 0.4045752 -0.82414
v 3.3615832 0.40457517 -1.0284231
v 3.4751575 -4.4703484E-08 -1.0284231
v 3.629129 -4.4703484E-08 -1.0284231
v 3.5660462 0.40457517 -1.0284231
v 3.4751487 0.2881105 -1.0284231
v 3.3615832 0.40457517 -1.0284231
v 3.3615832 0.2881105 -1.0284231
v 3.629129 -2.9802322E-08 -0.82414
v 3.5660462 0.4045752 -0.82414
v 3.5660462 0.40457517 -1.0284231
v 3.629129 -4.4703484E-08 -1.0284231
v 3.5660467 0.4045753 1.0284221
v 3.3615837 0.4045753 1.0284221
v 3.3615837 0.4045753 0.82413906
v 3.5660467 0.4045753 0.824139
v 3.6291294 4.4703484E-08 0.824139
v 3.6291294 4.4703484E-08 1.0284221
v 3.5660467 0.4045753 1.0284221
v 3.5660467 0.4045753 0.824139
v 3.4751492 0.28811055 0.82413906
v 3.475158 4.4703484E-08 0.824139
v 3.6291294 4.4703484E-08 0.824139
v 3.5660467 0.4045753 0.824139
v 3.3615837 0.4045753 0.82413906
v 3.3615837 0.28811055 0.824139
v -3.5660462 0.40457517 -1.0284221
v -3.3615837 0.40457517 -1.0284221
v -3.3615837 0.40457517 -0.82413906
v -3.5660462 0.40457517 -0.82413894
v -3.5660462 0.40457517 -1.0284221
v -3.62913 -5.9604645E-08 -1.0284221
v -3.475158 -5.9604645E-08 -1.0284221
v -3.4751492 0.28811046 -1.0284221
v -3.3615837 0.40457517 -1.0284221
v -3.3615837 0.28811046 -1.0284221
v -3.3615837 0.28811046 -1.0284221
v -3.3615837 0.2881105 -0.82413906
v -3.3615837 0.40457517 -0.82413906
v -3.3615837 0.40457517 -1.0284221
v -3.5660458 0.4045753 1.0284231
v -3.5660458 0.40457526 0.82414
v -3.3615832 0.40457526 0.82414
v -3.3615832 0.4045753 1.0284231
v -3.6291294 2.9802322E-08 0.82414
v -3.4751575 2.9802322E-08 0.8241399
v -3.4751487 0.28811055 0.82414
v -3.5660458 0.40457526 0.82414
v -3.3615832 0.40457526 0.82414
v -3.3615832 0.28811055 0.8241399
v -3.3615832 0.40457526 0.82414
v -3.3615832 0.28811055 0.8241399
v -3.3615832 0.28811055 1.0284231
v -3.3615832 0.4045753 1.0284231
v 1.028423 0.4045754 3.5660462
v 0.8241399 0.4045754 3.5660462
v 0.82413983 0.4045754 3.3615832
v 1.028423 0.4045754 3.3615832
v 1.028423 1.7881393E-07 3.4751575
v 1.028423 1.7881393E-07 3.629129
v 1.028423 0.4045754 3.5660462
v 1.028423 0.2881107 3.4751487
v 1.028423 0.4045754 3.3615832
v 1.028423 0.28811067 3.3615832
v 0.82413983 0.4045754 3.3615832
v 0.82413983 0.28811067 3.3615832
v 1.028423 0.28811067 3.3615832
v 1.028423 0.4045754 3.3615832
v -1.028422 0.4045754 3.5660467
v -1.028422 0.4045754 3.3615837
v -0.82413924 0.4045754 3.3615837
v -0.8241392 0.4045754 3.5660467
v -0.82413924 0.2881107 3.4751492
v -0.8241389 1.7881393E-07 3.475158
v -0.8241392 1.7881393E-07 3.6291294
v -0.8241392 0.4045754 3.5660467
v -0.82413924 0.4045754 3.3615837
v -0.8241389 0.28811067 3.3615837
v -1.028422 0.28811067 3.3615837
v -0.8241389 0.28811067 3.3615837
v -0.82413924 0.4045754 3.3615837
v -1.028422 0.4045754 3.3615837
v 3.05 0.07582609 0.40253937
v 3.05 0.07582611 0.30864024
v 3.1442506 0.075825945 0.3086402
v 3.1442506 0.075825915 0.40253899
v 3.1442504 0.28817272 0.6483073
v 3.2047527 0.28816617 0.64830726
v 3.204753 0.28816643 0.8335038
v 3.0500002 0.2881663 0.8335044
v 3.05 0.28816628 0.64830756
v 3.05 1.2367964E-06 0.30864024
v 3.1442506 1.1026859E-06 0.3086402
v 3.1442506 0.075825945 0.3086402
v 3.05 0.07582611 0.30864024
v 3.05 0.13672984 0.40253937
v 3.05 0.07582609 0.40253937
v 3.1442506 0.075825915 0.40253899
v 3.1442504 0.1367296 0.40253896
v 3.05 0.13672979 0.51991796
v 3.05 0.13672984 0.40253937
v 3.1442504 0.1367296 0.40253896
v 3.1442506 0.13672961 0.5199178
v 3.05 0.20102414 0.51991796
v 3.05 0.13672979 0.51991796
v 3.1442506 0.13672961 0.5199178
v 3.1442506 0.20102398 0.5199178
v 3.05 0.20102412 0.64830697
v 3.05 0.20102414 0.51991796
v 3.1442506 0.20102398 0.5199178
v 3.1442506 0.20102395 0.6483068
v 3.05 0.28816628 0.64830756
v 3.05 0.20102412 0.64830697
v 3.1442506 0.20102395 0.6483068
v 3.1442504 0.28817272 0.6483073
v -3.1442506 0.0758259 0.3086411
v -3.05 0.07582608 0.30864108
v -3.05 0.075826034 0.4025402
v -3.1442506 0.075825855 0.40253985
v -3.2047524 0.28816637 0.83350474
v -3.2047527 0.2881661 0.6483082
v -3.1442504 0.2881727 0.6483082
v -3.0499997 0.28816625 0.8335052
v -3.05 0.28816625 0.64830834
v -3.1442506 0.0758259 0.3086411
v -3.1442506 1.0430813E-06 0.3086411
v -3.05 1.1920929E-06 0.30864108
v -3.05 0.07582608 0.30864108
v -3.1442506 0.075825855 0.40253985
v -3.05 0.075826034 0.4025402
v -3.05 0.13672979 0.4025402
v -3.1442504 0.13672957 0.40253985
v -3.1442504 0.13672957 0.40253985
v -3.05 0.13672979 0.4025402
v -3.05 0.13672973 0.5199188
v -3.1442506 0.13672954 0.5199186
v -3.1442506 0.13672954 0.5199186
v -3.05 0.13672973 0.5199188
v -3.05 0.20102409 0.5199188
v -3.1442506 0.20102392 0.5199186
v -3.1442506 0.20102392 0.5199186
v -3.05 0.20102409 0.5199188
v -3.05 0.20102406 0.64830774
v -3.1442506 0.2010239 0.6483076
v -3.1442506 0.2010239 0.6483076
v -3.05 0.20102406 0.64830774
v -3.05 0.28816625 0.64830834
v -3.1442504 0.2881727 0.6483082
v -3.05 1.1920929E-06 0.30864108
v -3.05 0.075826034 0.4025402
v -3.05 0.07582608 0.30864108
v -3.0499997 1.5497208E-06 0.833504
v -3.05 0.13672973 0.5199188
v -3.05 0.13672979 0.4025402
v -3.05 0.20102406 0.64830774
v -3.05 0.20102409 0.5199188
v -3.05 0.28816625 0.64830834
v -3.0499997 0.28816625 0.8335052
vt 0.19934082 0.32836914
vt 0.21020508 0.3022461
vt 0.009963989 0.3022461
vt 0.009963989 0.32836914
vt 0.009963989 0.2175293
vt 0.009963989 0.3022461
vt 0.21020508 0.3022461
vt 0.21020508 0.2175293
vt 0.82128906 0.30126953
vt 0.61865234 0.30126953
vt 0.6328125 0.32739258
vt 0.82128906 0.32739258
vt 0.6040039 0.30200195
vt 0.6040039 0.21728516
vt 0.2253418 0.21728516
vt 0.2253418 0.30200195
vt 0.2253418 0.30200195
vt 0.2253418 0.328125
vt 0.6040039 0.328125
vt 0.6040039 0.30200195
vt 0.82128906 0.21691895
vt 0.61865234 0.21691895
vt 0.61865234 0.30126953
vt 0.82128906 0.30126953
vt 0.99853516 0.006855011
vt 0.984375 0.0015220642
vt 0.984375 0.52197266
vt 0.99853516 0.51904297
vt 0.9238281 0.22033691
vt 0.9238281 0.004383087
vt 0.90527344 0.004383087
vt 0.90527344 0.22033691
vt 0.89160156 0.0109939575
vt 0.89160156 0.22033691
vt 0.90527344 0.22033691
vt 0.90527344 0.004383087
vt 0.9658203 0.0015220642
vt 0.9658203 0.52197266
vt 0.984375 0.52197266
vt 0.984375 0.0015220642
vt 0.90527344 0.22033691
vt 0.89160156 0.22033691
vt 0.89160156 0.2388916
vt 0.90527344 0.2388916
vt 0.6191406 0.52001953
vt 0.81933594 0.52001953
vt 0.80810547 0.54589844
vt 0.6191406 0.54589844
vt 0.80810547 0.54589844
vt 0.80810547 0.5644531
vt 0.6191406 0.5644531
vt 0.6191406 0.54589844
vt 0.018005371 0.54589844
vt 0.0038051605 0.52001953
vt 0.20715332 0.52001953
vt 0.20715332 0.54589844
vt 0.20715332 0.5644531
vt 0.018005371 0.5644531
vt 0.018005371 0.54589844
vt 0.20715332 0.54589844
vt 0.22241211 0.53808594
vt 0.6010742 0.53808594
vt 0.6010742 0.56396484
vt 0.22241211 0.56396484
vt 0.6010742 0.51953125
vt 0.6010742 0.53808594
vt 0.22241211 0.53808594
vt 0.22241211 0.51953125
vt 0.25097656 0.10357666
vt 0.8076172 0.10357666
vt 0.8017578 0.089538574
vt 0.25097656 0.089538574
vt 0.21923828 0.0038414001
vt 0.00982666 0.0038414001
vt 0.00982666 0.08856201
vt 0.21923828 0.08856201
vt 0.21923828 0.1026001
vt 0.21923828 0.08856201
vt 0.00982666 0.08856201
vt 0.0032157898 0.1026001
vt 0.25097656 0.089538574
vt 0.8017578 0.089538574
vt 0.8017578 0.004837036
vt 0.25097656 0.004837036
vt 0.21923828 0.1026001
vt 0.23779297 0.1026001
vt 0.23779297 0.08856201
vt 0.21923828 0.08856201
vt 0.016708374 0.48095703
vt 0.0058288574 0.5073242
vt 0.20593262 0.5073242
vt 0.20593262 0.48095703
vt 0.20593262 0.46264648
vt 0.016708374 0.46264648
vt 0.016708374 0.48095703
vt 0.20593262 0.48095703
vt 0.6123047 0.50878906
vt 0.81591797 0.50878906
vt 0.80126953 0.48266602
vt 0.6123047 0.48266602
vt 0.80126953 0.48266602
vt 0.80126953 0.46411133
vt 0.6123047 0.46411133
vt 0.6123047 0.48266602
vt 0.60009766 0.50634766
vt 0.60009766 0.4802246
vt 0.22106934 0.4802246
vt 0.22106934 0.50634766
vt 0.60009766 0.46166992
vt 0.22106934 0.46166992
vt 0.22106934 0.4802246
vt 0.60009766 0.4802246
vt 0.011703491 0.19360352
vt 0.0059394836 0.2076416
vt 0.453125 0.2076416
vt 0.45361328 0.19360352
vt 0.5620117 0.2076416
vt 0.5620117 0.19360352
vt 0.5932617 0.111816406
vt 0.5932617 0.1965332
vt 0.8027344 0.1965332
vt 0.8027344 0.111816406
vt 0.8027344 0.1965332
vt 0.5932617 0.1965332
vt 0.59375 0.21057129
vt 0.80908203 0.21057129
vt 0.45361328 0.19360352
vt 0.5620117 0.19360352
vt 0.5620117 0.10882568
vt 0.45361328 0.10882568
vt 0.011703491 0.19360352
vt 0.011703491 0.10882568
vt 0.5908203 0.44921875
vt 0.6015625 0.4230957
vt 0.31298828 0.4230957
vt 0.31298828 0.44921875
vt 0.31298828 0.3383789
vt 0.31298828 0.4230957
vt 0.6015625 0.4230957
vt 0.6015625 0.3383789
vt 0.29370117 0.42407227
vt 0.007232666 0.42407227
vt 0.017837524 0.44995117
vt 0.29370117 0.44995117
vt 0.29370117 0.33911133
vt 0.007232666 0.33911133
vt 0.007232666 0.42407227
vt 0.29370117 0.42407227
vt 0.96240234 0.2758789
vt 0.9482422 0.27026367
vt 0.9482422 0.5180664
vt 0.96240234 0.5180664
vt 0.9291992 0.0019569397
vt 0.9291992 0.2553711
vt 0.9477539 0.2553711
vt 0.9477539 0.0019569397
vt 0.96191406 0.24963379
vt 0.96191406 0.0019292831
vt 0.9477539 0.0019569397
vt 0.9477539 0.2553711
vt 0.9296875 0.27026367
vt 0.9296875 0.5180664
vt 0.9482422 0.5180664
vt 0.9482422 0.27026367
vt 0.38745117 0.87060547
vt 0.7631836 0.87060547
vt 0.7631836 0.94921875
vt 0.38745117 0.94921875
vt 0.75439453 0.97314453
vt 0.39648438 0.97314453
vt 0.38745117 0.94921875
vt 0.7631836 0.94921875
vt 0.39648438 0.99072266
vt 0.39648438 0.97314453
vt 0.75439453 0.97314453
vt 0.75439453 0.99072266
vt 0.7626953 0.83691406
vt 0.36865234 0.83691406
vt 0.37451172 0.82177734
vt 0.7573242 0.82177734
vt 0.37451172 0.82177734
vt 0.37451172 0.7294922
vt 0.7573242 0.7294922
vt 0.7573242 0.82177734
vt 0.7626953 0.8569336
vt 0.36865234 0.8569336
vt 0.36865234 0.83691406
vt 0.7626953 0.83691406
vt 0.38500977 0.99560547
vt 0.37597656 0.96875
vt 0.014060974 0.96875
vt 0.004764557 0.99560547
vt 0.37597656 0.94970703
vt 0.014060974 0.94970703
vt 0.014060974 0.96875
vt 0.37597656 0.96875
vt 0.009361267 0.91748047
vt 0.004096985 0.93115234
vt 0.36401367 0.93115234
vt 0.35888672 0.91748047
vt 0.009361267 0.8334961
vt 0.009361267 0.91748047
vt 0.35888672 0.91748047
vt 0.35888672 0.8334961
vt 0.76416016 0.6513672
vt 0.76416016 0.5727539
vt 0.38867188 0.5727539
vt 0.38867188 0.6513672
vt 0.38867188 0.6513672
vt 0.39770508 0.67578125
vt 0.7553711 0.67578125
vt 0.76416016 0.6513672
vt 0.41259766 0.68652344
vt 0.40771484 0.69970703
vt 0.74365234 0.69970703
vt 0.73876953 0.68652344
vt 0.74365234 0.7167969
vt 0.74365234 0.69970703
vt 0.40771484 0.69970703
vt 0.40771484 0.7167969
vt 0.0036201477 0.5722656
vt 0.37939453 0.5722656
vt 0.37939453 0.6508789
vt 0.0036201477 0.6508789
vt 0.3701172 0.67529297
vt 0.012588501 0.67529297
vt 0.0036201477 0.6508789
vt 0.37939453 0.6508789
vt 0.012588501 0.6923828
vt 0.012588501 0.67529297
vt 0.3701172 0.67529297
vt 0.3701172 0.6923828
vt 0.35546875 0.80078125
vt 0.0056495667 0.80078125
vt 0.010765076 0.78759766
vt 0.3503418 0.78759766
vt 0.010765076 0.78759766
vt 0.010765076 0.7055664
vt 0.3503418 0.7055664
vt 0.3503418 0.78759766
vt 0.35546875 0.81884766
vt 0.0056495667 0.81884766
vt 0.0056495667 0.80078125
vt 0.35546875 0.80078125
vt 0.91796875 0.55029297
vt 0.91796875 0.9946289
vt 0.8886719 0.9848633
vt 0.8886719 0.5595703
vt 0.87841797 0.5522461
vt 0.87841797 0.76904297
vt 0.84472656 0.7626953
vt 0.84472656 0.55908203
vt 0.80615234 0.99902344
vt 0.80615234 0.77685547
vt 0.83935547 0.7836914
vt 0.83935547 0.9921875
vt 0.7709961 0.78125
vt 0.7709961 0.6113281
vt 0.7993164 0.6220703
vt 0.7998047 0.7807617
vt 0.99609375 0.98535156
vt 0.9667969 0.9951172
vt 0.9667969 0.52978516
vt 0.99609375 0.54003906
vt 0.8803711 0.99560547
vt 0.8466797 0.98876953
vt 0.8466797 0.78027344
vt 0.8803711 0.7739258
vt 0.8388672 0.5654297
vt 0.80566406 0.5722656
vt 0.80566406 0.77197266
vt 0.8388672 0.7783203
vt 0.7988281 0.984375
vt 0.7705078 0.9946289
vt 0.7705078 0.80126953
vt 0.7988281 0.8022461
vt 0.95947266 0.52978516
vt 0.95947266 0.99560547
vt 0.9301758 0.98535156
vt 0.9301758 0.54052734
vt 0.84765625 0.07531738
vt 0.81152344 0.07531738
vt 0.81152344 0.111328125
vt 0.84765625 0.111328125
vt 0.8745117 0.0073928833
vt 0.84765625 0.0032176971
vt 0.84765625 0.07531738
vt 0.8666992 0.057495117
vt 0.8833008 0.08087158
vt 0.88623047 0.060577393
vt 0.81152344 0.0032176971
vt 0.81152344 0.07531738
vt 0.84765625 0.07531738
vt 0.84765625 0.0032176971
vt 0.8828125 0.4128418
vt 0.8828125 0.44848633
vt 0.84765625 0.44848633
vt 0.84765625 0.4128418
vt 0.84765625 0.34155273
vt 0.8828125 0.34155273
vt 0.8828125 0.4128418
vt 0.84765625 0.4128418
vt 0.8286133 0.39526367
vt 0.8208008 0.34570312
vt 0.84765625 0.34155273
vt 0.84765625 0.4128418
vt 0.8125 0.41845703
vt 0.80908203 0.3984375
vt 0.8691406 0.20373535
vt 0.84033203 0.20373535
vt 0.84033203 0.17492676
vt 0.8691406 0.17492676
vt 0.9116211 0.31152344
vt 0.92333984 0.37646484
vt 0.8984375 0.37695312
vt 0.89746094 0.3305664
vt 0.87890625 0.31201172
vt 0.87890625 0.33081055
vt 0.82373047 0.20373535
vt 0.82373047 0.17492676
vt 0.84033203 0.17492676
vt 0.84033203 0.20373535
vt 0.88183594 0.21252441
vt 0.88183594 0.24133301
vt 0.85302734 0.24133301
vt 0.85302734 0.21252441
vt 0.70166016 0.40063477
vt 0.69677734 0.43286133
vt 0.63623047 0.42358398
vt 0.6147461 0.40063477
vt 0.60791016 0.44360352
vt 0.6323242 0.44726562
vt 0.85302734 0.24133301
vt 0.8364258 0.24133301
vt 0.8364258 0.21252441
vt 0.85302734 0.21252441
vt 0.88671875 0.0869751
vt 0.8574219 0.0869751
vt 0.8574219 0.11584473
vt 0.88671875 0.11584473
vt 0.8979492 0.30737305
vt 0.89746094 0.28271484
vt 0.83251953 0.29418945
vt 0.8515625 0.3083496
vt 0.8330078 0.32714844
vt 0.8520508 0.32666016
vt 0.8574219 0.11584473
vt 0.8574219 0.13232422
vt 0.88671875 0.13232422
vt 0.88671875 0.11584473
vt 0.8540039 0.1373291
vt 0.8251953 0.1373291
vt 0.8251953 0.1661377
vt 0.8540039 0.1661377
vt 0.90185547 0.27539062
vt 0.8520508 0.2788086
vt 0.85009766 0.25195312
vt 0.9213867 0.25805664
vt 0.9238281 0.29370117
vt 0.9033203 0.29516602
vt 0.80859375 0.1373291
vt 0.80859375 0.1661377
vt 0.8251953 0.1661377
vt 0.8251953 0.1373291
vt 0.7558594 0.33422852
vt 0.77734375 0.33422852
vt 0.77734375 0.3557129
vt 0.7558594 0.3557129
vt 0.6513672 0.3557129
vt 0.6513672 0.3696289
vt 0.6088867 0.3696289
vt 0.6088867 0.33422852
vt 0.6513672 0.33422852
vt 0.7949219 0.33422852
vt 0.7949219 0.3557129
vt 0.77734375 0.3557129
vt 0.77734375 0.33422852
vt 0.7421875 0.33422852
vt 0.7558594 0.33422852
vt 0.7558594 0.3557129
vt 0.7421875 0.3557129
vt 0.71533203 0.33422852
vt 0.7421875 0.33422852
vt 0.7421875 0.3557129
vt 0.71533203 0.3557129
vt 0.7006836 0.33422852
vt 0.71533203 0.33422852
vt 0.71533203 0.3557129
vt 0.7006836 0.3557129
vt 0.6713867 0.33422852
vt 0.7006836 0.33422852
vt 0.7006836 0.3557129
vt 0.6713867 0.3557129
vt 0.6513672 0.33422852
vt 0.6713867 0.33422852
vt 0.6713867 0.3557129
vt 0.6513672 0.3557129
vt 0.6435547 0.37475586
vt 0.6435547 0.3942871
vt 0.66259766 0.3942871
vt 0.66259766 0.37475586
vt 0.79589844 0.3623047
vt 0.7578125 0.3623047
vt 0.7578125 0.37475586
vt 0.79589844 0.3942871
vt 0.7578125 0.3942871
vt 0.6435547 0.37475586
vt 0.6274414 0.37475586
vt 0.6274414 0.3942871
vt 0.6435547 0.3942871
vt 0.66259766 0.37475586
vt 0.66259766 0.3942871
vt 0.67529297 0.3942871
vt 0.67529297 0.37475586
vt 0.67529297 0.37475586
vt 0.67529297 0.3942871
vt 0.69970703 0.3942871
vt 0.69970703 0.37475586
vt 0.69970703 0.37475586
vt 0.69970703 0.3942871
vt 0.7128906 0.3942871
vt 0.7128906 0.37475586
vt 0.7128906 0.37475586
vt 0.7128906 0.3942871
vt 0.7397461 0.3942871
vt 0.7397461 0.37475586
vt 0.7397461 0.37475586
vt 0.7397461 0.3942871
vt 0.7578125 0.3942871
vt 0.7578125 0.37475586
vt 0.6875 0.45410156
vt 0.70654297 0.43823242
vt 0.6875 0.43823242
vt 0.79589844 0.45410156
vt 0.73095703 0.42578125
vt 0.70654297 0.42578125
vt 0.7578125 0.41235352
vt 0.73095703 0.41235352
vt 0.7578125 0.3942871
vt 0.79589844 0.3942871
vn -0 1 0
vn -0 1 0
vn -0 1 0
vn -0 1 0
vn 1 0 -0.00021183491
vn 1 0 -0.00021183491
vn 1 0 -0.00021183491
vn 1 0 -0.00021183491
vn -0 1 0
vn -0 1 0
vn -0 1 0
vn -0 1 0
vn 1 1.2278557E-05 0
vn 1 1.2278557E-05 0
vn 1 1.2278557E-05 0
vn 1 1.2278557E-05 0
vn -0 1 0
vn -0 1 0
vn -0 1 0
vn -0 1 0
vn 1 0 0.00020956993
vn 1 0 0.00020956993
vn 1 0 0.00020956993
vn 1 0 0.00020956993
vn -0 1 0
vn -0 1 0
vn -0 1 0
vn -0 1 0
vn 1 0 5.9843063E-05
vn 1 0 5.9843063E-05
vn 1 0 5.9843063E-05
vn 1 0 5.9843063E-05
vn -0 1 0
vn -0 1 0
vn -0 1 0
vn -0 1 0
vn 1 0 -2.3305416E-05
vn 1 0 -2.3305416E-05
vn 1 0 -2.3305416E-05
vn 1 0 -2.3305416E-05
vn 1.2695789E-05 -1.0371208E-05 -1
vn 1.2695789E-05 -1.0371208E-05 -1
vn 1.2695789E-05 -1.0371208E-05 -1
vn 1.2695789E-05 -1.0371208E-05 -1
vn -0 1 0
vn -0 1 0
vn -0 1 0
vn -0 1 0
vn 1 0 1.1563301E-05
vn 1 0 1.1563301E-05
vn 1 0 1.1563301E-05
vn 1 0 1.1563301E-05
vn -0 1 0
vn -0 1 0
vn -0 1 0
vn -0 1 0
vn 1 0 -1.1861324E-05
vn 1 0 -1.1861324E-05
vn 1 0 -1.1861324E-05
vn 1 0 -1.1861324E-05
vn -0 1 0
vn -0 1 0
vn -0 1 0
vn -0 1 0
vn 1 0 0
vn 1 0 0
vn 1 0 0
vn 1 0 0
vn -0 1 0
vn -0 1 0
vn -0 1 0
vn -0 1 0
vn 1 0 0
vn 1 0 0
vn 1 0 0
vn 1 0 0
vn -0 1 0
vn -0 1 0
vn -0 1 0
vn -0 1 0
vn 1 0 0
vn 1 0 0
vn 1 0 0
vn 1 0 0
vn -1.3649464E-05 -1.0371208E-05 -1
vn -1.3649464E-05 -1.0371208E-05 -1
vn -1.3649464E-05 -1.0371208E-05 -1
vn -1.3649464E-05 -1.0371208E-05 -1
vn -0 1 0
vn -0 1 0
vn -0 1 0
vn -0 1 0
vn 0.00198555 0 -1
vn 0.00198555 0 -1
vn 0.00198555 0 -1
vn 0.00198555 0 -1
vn -0 1 0
vn -0 1 0
vn -0 1 0
vn -0 1 0
vn -0.00198555 0 -1
vn -0.00198555 0 -1
vn -0.00198555 0 -1
vn -0.00198555 0 -1
vn -0 1 0
vn -0 1 0
vn -0 1 0
vn -0 1 0
vn -0 0 -1
vn -0 0 -1
vn -0 0 -1
vn -0 0 -1
vn -0 1 0
vn -0 1 0
vn -0 1 0
vn -0 1 0
vn -0 1 0
vn -0 1 0
vn -0.0010385513 0 -1
vn -0.0010385513 0 -1
vn -0.0010385513 0 -1
vn -0.0010385513 0 -1
vn -0 1 0
vn -0 1 0
vn -0 1 0
vn -0 1 0
vn 0.0007185936 0 -1
vn 0.00039458275 0 -1
vn 0.00039458275 0 -1
vn 0.0007185936 0 -1
vn 0.00039458275 0 -1
vn 0.00039458275 0 -1
vn -0 1 0
vn -0 1 0
vn -0 1 0
vn -0 1 0
vn -0.00013637543 0 -1
vn -0.00013637543 0 -1
vn -0.00013637543 0 -1
vn -0.00013637543 0 -1
vn -0 1 0
vn -0 1 0
vn -0 1 0
vn -0 1 0
vn 0.00013542175 0 -1
vn 0.00013542175 0 -1
vn 0.00013542175 0 -1
vn 0.00013542175 0 -1
vn -0 1 0
vn -0 1 0
vn -0 1 0
vn -0 1 0
vn -0.00010895729 0 -1
vn -0.00010895729 0 -1
vn -0.00010895729 0 -1
vn -0.00010895729 0 -1
vn -0 1 0
vn -0 1 0
vn -0 1 0
vn -0 1 0
vn 0.00010931492 0 -1
vn 0.00010931492 0 -1
vn 0.00010931492 0 -1
vn 0.00010931492 0 -1
vn 0.7055664 0 0.7084961
vn 0.7055664 0 0.7084961
vn 0.7055664 0 0.7084961
vn 0.7055664 0 0.7084961
vn -0 1 0
vn -0 1 0
vn -0 1 0
vn -0 1 0
vn -0.70703125 0 -0.70703125
vn -0.70703125 0 -0.70703125
vn -0.70703125 0 -0.70703125
vn -0.70703125 0 -0.70703125
vn -0 1 0
vn -0 1 0
vn -0 1 0
vn -0 1 0
vn -0.7080078 0 -0.7060547
vn -0.7080078 0 -0.7060547
vn -0.7080078 0 -0.7060547
vn -0.7080078 0 -0.7060547
vn 0.70703125 0 0.70703125
vn 0.70703125 0 0.70703125
vn 0.70703125 0 0.70703125
vn 0.70703125 0 0.70703125
vn -0 1 0
vn -0 1 0
vn -0 1 0
vn -0 1 0
vn 0.70703125 0 -0.70703125
vn 0.70703125 0 -0.70703125
vn 0.70703125 0 -0.70703125
vn 0.70703125 0 -0.70703125
vn -0 1 0
vn -0 1 0
vn -0 1 0
vn -0 1 0
vn 0.70703125 0 -0.70703125
vn 0.70703125 0 -0.70703125
vn 0.70703125 0 -0.70703125
vn 0.70703125 0 -0.70703125
vn 0.70703125 0 -0.70703125
vn 0.70703125 0 -0.70703125
vn 0.70703125 0 -0.70703125
vn 0.70703125 0 -0.70703125
vn -0 1 0
vn -0 1 0
vn -0 1 0
vn -0 1 0
vn -0 1 0
vn -0 1 0
vn -0 1 0
vn -0 1 0
vn 0.70703125 0 -0.70703125
vn 0.70703125 0 -0.70703125
vn 0.70703125 0 -0.70703125
vn 0.70703125 0 -0.70703125
vn -0.70703125 0 -0.70703125
vn -0.70703125 0 -0.70703125
vn -0.70703125 0 -0.70703125
vn -0.70703125 0 -0.70703125
vn -0 1 0
vn -0 1 0
vn -0 1 0
vn -0 1 0
vn 0.70703125 0 0.70703125
vn 0.70703125 0 0.70703125
vn 0.70703125 0 0.70703125
vn 0.70703125 0 0.70703125
vn -0 1 0
vn -0 1 0
vn -0 1 0
vn -0 1 0
vn 0.70703125 0 0.70703125
vn 0.70703125 0 0.70703125
vn 0.70703125 0 0.70703125
vn 0.70703125 0 0.70703125
vn -0.70703125 0 -0.70703125
vn -0.70703125 0 -0.70703125
vn -0.70703125 0 -0.70703125
vn -0.70703125 0 -0.70703125
vn -0 1 0
vn -0 1 0
vn -0 1 0
vn -0 1 0
vn -0 1 0
vn -0 1 0
vn -0 1 0
vn -0 1 0
vn -0 1 0
vn -0 1 0
vn -0 1 0
vn -0 1 0
vn -0 1 0
vn -0 1 0
vn -0 1 0
vn -0 1 0
vn -0 1 0
vn -0 1 0
vn -0 1 0
vn -0 1 0
vn -0 1 0
vn -0 1 0
vn -0 1 0
vn -0 1 0
vn -0 1 0
vn -0 1 0
vn -0 1 0
vn -0 1 0
vn -0 1 0
vn -0 1 0
vn -0 1 0
vn -0 1 0
vn -0 1 0
vn -0 1 0
vn -0 1 0
vn -0 1 0
vn -0 1 0
vn -0 1 0
vn -0 1 0
vn -0 1 0
vn -0 0 -1
vn -0 0 -1
vn -0 0 -1
vn -0 0 -1
vn -0 0 -1
vn -0 0 -1
vn 0.98828125 0.15405273 0
vn 0.98828125 0.15405273 0
vn 0.98828125 0.15405273 0
vn 0.98828125 0.15405273 0
vn -0 1 0
vn -0 1 0
vn -0 1 0
vn -0 1 0
vn 0.98828125 0.15405273 0
vn 0.98828125 0.15405273 0
vn 0.98828125 0.15405273 0
vn 0.98828125 0.15405273 0
vn -0 0 -1
vn -0 0 -1
vn -0 0 -1
vn -0 0 -1
vn -0 0 -1
vn -0 0 -1
vn -0 1 0
vn -0 1 0
vn -0 1 0
vn -0 1 0
vn -0 0 -1
vn -0 0 -1
vn -0 0 -1
vn -0 0 -1
vn -0 0 -1
vn -0 0 -1
vn 1 0 0
vn 1 0 0
vn 1 0 0
vn 1 0 0
vn -0 1 0
vn -0 1 0
vn -0 1 0
vn -0 1 0
vn -0 0 -1
vn -0 0 -1
vn -0 0 -1
vn -0 0 -1
vn -0 0 -1
vn -0 0 -1
vn 1 0 0
vn 1 0 0
vn 1 0 0
vn 1 0 0
vn -0 1 0
vn -0 1 0
vn -0 1 0
vn -0 1 0
vn 1 0 0
vn 1 0 0
vn 1 0 0
vn 1 0 0
vn 1 0 0
vn 1 0 0
vn -0 0 -1
vn -0 0 -1
vn -0 0 -1
vn -0 0 -1
vn -0 1 0
vn -0 1 0
vn -0 1 0
vn -0 1 0
vn 1 0 0
vn 1 0 0
vn 1 0 0
vn 1 0 0
vn 1 0 0
vn 1 0 0
vn -0 0 -1
vn -0 0 -1
vn -0 0 -1
vn -0 0 -1
vn -0 1 0
vn -0 1 0
vn -0 1 0
vn -0 1 0
vn 2.9921532E-05 1 2.4199486E-05
vn 2.9921532E-05 1 2.4199486E-05
vn 2.9921532E-05 1 2.4199486E-05
vn 2.9921532E-05 1 2.4199486E-05
vn -6.830692E-05 1 0
vn -0 0 -1
vn -0 0 -1
vn -0 0 -1
vn -0 0 -1
vn -0 0 -1
vn -0 0 -1
vn -0 0 -1
vn -0 0 -1
vn -0 1 0
vn -0 1 0
vn -0 1 0
vn -0 1 0
vn -0 0 -1
vn -0 0 -1
vn -0 0 -1
vn -0 0 -1
vn -0 1 0
vn -0 1 0
vn -0 1 0
vn -0 1 0
vn -0 0 -1
vn -0 0 -1
vn -0 0 -1
vn -0 0 -1
vn -0 1 0
vn -0 1 0
vn -0 1 0
vn -0 1 0
vn -3.0040741E-05 1 2.4318695E-05
vn -3.0040741E-05 1 2.4318695E-05
vn -3.0040741E-05 1 2.4318695E-05
vn -3.0040741E-05 1 2.4318695E-05
vn 6.830692E-05 1 0
vn -0 0 -1
vn -0 0 -1
vn -0 0 -1
vn -0 0 -1
vn -0 0 -1
vn -0 0 -1
vn -0 0 -1
vn -0 0 -1
vn -0 1 0
vn -0 1 0
vn -0 1 0
vn -0 1 0
vn -0 0 -1
vn -0 0 -1
vn -0 0 -1
vn -0 0 -1
vn -0 1 0
vn -0 1 0
vn -0 1 0
vn -0 1 0
vn -0 0 -1
vn -0 0 -1
vn -0 0 -1
vn -0 0 -1
vn 1 0 0
vn 1 0 0
vn 1 0 0
vn 1 0 0
vn 1 0 0
vn 1 0 0
vn 1 0 0
vn 1 0 0
vn 1 0 0
vn 1 0 0
g CityWall_1_5_0
f 3/3/3 2/2/2 1/1/1
f 4/4/4 3/3/3 1/1/1
f 7/7/7 6/6/6 5/5/5
f 8/8/8 7/7/7 5/5/5
f 11/11/11 10/10/10 9/9/9
f 12/12/12 11/11/11 9/9/9
f 15/15/15 14/14/14 13/13/13
f 16/16/16 15/15/15 13/13/13
f 19/19/19 18/18/18 17/17/17
f 20/20/20 19/19/19 17/17/17
f 23/23/23 22/22/22 21/21/21
f 24/24/24 23/23/23 21/21/21
f 27/27/27 26/26/26 25/25/25
f 28/28/28 27/27/27 25/25/25
f 31/31/31 30/30/30 29/29/29
f 32/32/32 31/31/31 29/29/29
f 35/35/35 34/34/34 33/33/33
f 36/36/36 35/35/35 33/33/33
f 39/39/39 38/38/38 37/37/37
f 40/40/40 39/39/39 37/37/37
f 43/43/43 42/42/42 41/41/41
f 44/44/44 43/43/43 41/41/41
f 47/47/47 46/46/46 45/45/45
f 48/48/48 47/47/47 45/45/45
f 51/51/51 50/50/50 49/49/49
f 52/52/52 51/51/51 49/49/49
f 55/55/55 54/54/54 53/53/53
f 56/56/56 55/55/55 53/53/53
f 59/59/59 58/58/58 57/57/57
f 60/60/60 59/59/59 57/57/57
f 63/63/63 62/62/62 61/61/61
f 64/64/64 63/63/63 61/61/61
f 67/67/67 66/66/66 65/65/65
f 68/68/68 67/67/67 65/65/65
f 71/71/71 70/70/70 69/69/69
f 72/72/72 71/71/71 69/69/69
f 75/75/75 74/74/74 73/73/73
f 76/76/76 75/75/75 73/73/73
f 79/79/79 78/78/78 77/77/77
f 80/80/80 79/79/79 77/77/77
f 83/83/83 82/82/82 81/81/81
f 84/84/84 83/83/83 81/81/81
f 87/87/87 86/86/86 85/85/85
f 88/88/88 87/87/87 85/85/85
f 91/91/91 90/90/90 89/89/89
f 92/92/92 91/91/91 89/89/89
f 95/95/95 94/94/94 93/93/93
f 96/96/96 95/95/95 93/93/93
f 99/99/99 98/98/98 97/97/97
f 100/100/100 99/99/99 97/97/97
f 103/103/103 102/102/102 101/101/101
f 104/104/104 103/103/103 101/101/101
f 107/107/107 106/106/106 105/105/105
f 108/108/108 107/107/107 105/105/105
f 111/111/111 110/110/110 109/109/109
f 112/112/112 111/111/111 109/109/109
f 115/115/115 114/114/114 113/113/113
f 116/116/116 115/115/115 113/113/113
f 117/117/117 115/115/115 116/116/116
f 118/118/118 117/117/117 116/116/116
f 121/121/121 120/120/120 119/119/119
f 122/122/122 121/121/121 119/119/119
f 125/125/125 124/124/124 123/123/123
f 126/126/126 125/125/125 123/123/123
f 129/129/129 128/128/128 127/127/127
f 130/130/130 129/129/129 127/127/127
f 130/130/130 127/127/127 131/131/131
f 132/132/132 130/130/130 131/131/131
f 135/135/135 134/134/134 133/133/133
f 136/136/136 135/135/135 133/133/133
f 139/139/139 138/138/138 137/137/137
f 140/140/140 139/139/139 137/137/137
f 143/143/143 142/142/142 141/141/141
f 144/144/144 143/143/143 141/141/141
f 147/147/147 146/146/146 145/145/145
f 148/148/148 147/147/147 145/145/145
f 151/151/151 150/150/150 149/149/149
f 152/152/152 151/151/151 149/149/149
f 155/155/155 154/154/154 153/153/153
f 156/156/156 155/155/155 153/153/153
f 159/159/159 158/158/158 157/157/157
f 160/160/160 159/159/159 157/157/157
f 163/163/163 162/162/162 161/161/161
f 164/164/164 163/163/163 161/161/161
f 167/167/167 166/166/166 165/165/165
f 168/168/168 167/167/167 165/165/165
f 171/171/171 170/170/170 169/169/169
f 172/172/172 171/171/171 169/169/169
f 175/175/175 174/174/174 173/173/173
f 176/176/176 175/175/175 173/173/173
f 179/179/179 178/178/178 177/177/177
f 180/180/180 179/179/179 177/177/177
f 183/183/183 182/182/182 181/181/181
f 184/184/184 183/183/183 181/181/181
f 187/187/187 186/186/186 185/185/185
f 188/188/188 187/187/187 185/185/185
f 191/191/191 190/190/190 189/189/189
f 192/192/192 191/191/191 189/189/189
f 195/195/195 194/194/194 193/193/193
f 196/196/196 195/195/195 193/193/193
f 199/199/199 198/198/198 197/197/197
f 200/200/200 199/199/199 197/197/197
f 203/203/203 202/202/202 201/201/201
f 204/204/204 203/203/203 201/201/201
f 207/207/207 206/206/206 205/205/205
f 208/208/208 207/207/207 205/205/205
f 211/211/211 210/210/210 209/209/209
f 212/212/212 211/211/211 209/209/209
f 215/215/215 214/214/214 213/213/213
f 216/216/216 215/215/215 213/213/213
f 219/219/219 218/218/218 217/217/217
f 220/220/220 219/219/219 217/217/217
f 223/223/223 222/222/222 221/221/221
f 224/224/224 223/223/223 221/221/221
f 227/227/227 226/226/226 225/225/225
f 228/228/228 227/227/227 225/225/225
f 231/231/231 230/230/230 229/229/229
f 232/232/232 231/231/231 229/229/229
f 235/235/235 234/234/234 233/233/233
f 236/236/236 235/235/235 233/233/233
f 239/239/239 238/238/238 237/237/237
f 240/240/240 239/239/239 237/237/237
f 243/243/243 242/242/242 241/241/241
f 244/244/244 243/243/243 241/241/241
f 247/247/247 246/246/246 245/245/245
f 248/248/248 247/247/247 245/245/245
f 251/251/251 250/250/250 249/249/249
f 252/252/252 251/251/251 249/249/249
f 255/255/255 254/254/254 253/253/253
f 256/256/256 255/255/255 253/253/253
f 259/259/259 258/258/258 257/257/257
f 260/260/260 259/259/259 257/257/257
f 263/263/263 262/262/262 261/261/261
f 264/264/264 263/263/263 261/261/261
f 267/267/267 266/266/266 265/265/265
f 268/268/268 267/267/267 265/265/265
f 271/271/271 270/270/270 269/269/269
f 272/272/272 271/271/271 269/269/269
f 275/275/275 274/274/274 273/273/273
f 276/276/276 275/275/275 273/273/273
f 279/279/279 278/278/278 277/277/277
f 280/280/280 279/279/279 277/277/277
f 283/283/283 282/282/282 281/281/281
f 284/284/284 283/283/283 281/281/281
f 287/287/287 286/286/286 285/285/285
f 288/288/288 287/287/287 285/285/285
f 289/289/289 287/287/287 288/288/288
f 290/290/290 289/289/289 288/288/288
f 293/293/293 292/292/292 291/291/291
f 294/294/294 293/293/293 291/291/291
f 297/297/297 296/296/296 295/295/295
f 298/298/298 297/297/297 295/295/295
f 301/301/301 300/300/300 299/299/299
f 302/302/302 301/301/301 299/299/299
f 305/305/305 304/304/304 303/303/303
f 306/306/306 305/305/305 303/303/303
f 307/307/307 306/306/306 303/303/303
f 308/308/308 307/307/307 303/303/303
f 311/311/311 310/310/310 309/309/309
f 312/312/312 311/311/311 309/309/309
f 315/315/315 314/314/314 313/313/313
f 316/316/316 315/315/315 313/313/313
f 313/313/313 317/317/317 316/316/316
f 317/317/317 318/318/318 316/316/316
f 321/321/321 320/320/320 319/319/319
f 322/322/322 321/321/321 319/319/319
f 325/325/325 324/324/324 323/323/323
f 326/326/326 325/325/325 323/323/323
f 329/329/329 328/328/328 327/327/327
f 330/330/330 329/329/329 327/327/327
f 330/330/330 331/331/331 329/329/329
f 331/331/331 332/332/332 329/329/329
f 335/335/335 334/334/334 333/333/333
f 336/336/336 335/335/335 333/333/333
f 339/339/339 338/338/338 337/337/337
f 340/340/340 339/339/339 337/337/337
f 343/343/343 342/342/342 341/341/341
f 344/344/344 343/343/343 341/341/341
f 345/345/345 343/343/343 344/344/344
f 346/346/346 345/345/345 344/344/344
f 349/349/349 348/348/348 347/347/347
f 350/350/350 349/349/349 347/347/347
f 353/353/353 352/352/352 351/351/351
f 354/354/354 353/353/353 351/351/351
f 357/357/357 356/356/356 355/355/355
f 358/358/358 357/357/357 355/355/355
f 359/359/359 358/358/358 355/355/355
f 360/360/360 359/359/359 355/355/355
f 363/363/363 362/362/362 361/361/361
f 364/364/364 363/363/363 361/361/361
f 367/367/367 366/366/366 365/365/365
f 368/368/368 367/367/367 365/365/365
f 371/371/371 370/370/370 369/369/369
f 372/372/372 371/371/371 369/369/369
f 373/373/373 372/372/372 369/369/369
f 376/376/376 375/375/375 374/374/374
f 377/377/377 376/376/376 374/374/374
f 380/380/380 379/379/379 378/378/378
f 381/381/381 380/380/380 378/378/378
f 384/384/384 383/383/383 382/382/382
f 385/385/385 384/384/384 382/382/382
f 388/388/388 387/387/387 386/386/386
f 389/389/389 388/388/388 386/386/386
f 392/392/392 391/391/391 390/390/390
f 393/393/393 392/392/392 390/390/390
f 396/396/396 395/395/395 394/394/394
f 397/397/397 396/396/396 394/394/394
f 400/400/400 399/399/399 398/398/398
f 401/401/401 400/400/400 398/398/398
f 404/404/404 403/403/403 402/402/402
f 405/405/405 404/404/404 402/402/402
f 405/405/405 406/406/406 404/404/404
f 409/409/409 408/408/408 407/407/407
f 410/410/410 409/409/409 407/407/407
f 413/413/413 412/412/412 411/411/411
f 414/414/414 413/413/413 411/411/411
f 417/417/417 416/416/416 415/415/415
f 418/418/418 417/417/417 415/415/415
f 421/421/421 420/420/420 419/419/419
f 422/422/422 421/421/421 419/419/419
f 425/425/425 424/424/424 423/423/423
f 426/426/426 425/425/425 423/423/423
f 429/429/429 428/428/428 427/427/427
f 430/430/430 429/429/429 427/427/427
f 433/433/433 432/432/432 431/431/431
f 432/432/432 434/434/434 431/431/431
f 435/435/435 434/434/434 432/432/432
f 436/436/436 435/435/435 432/432/432
f 437/437/437 434/434/434 435/435/435
f 438/438/438 437/437/437 435/435/435
f 437/437/437 439/439/439 434/434/434
f 439/439/439 440/440/440 434/434/434
