g CityWall_1_1_shadow
v 1.5127838 -1.1607191E-07 -2.655416
v 1.1488351 -7.480319E-08 -1.7112976
v -0.9924524 -7.694828E-08 -1.7603714
v -1.4012417 -1.14822086E-07 -2.626823
v 2.8809316 -7.287521E-08 -1.6671909
v -1.8569198 -4.4173348E-08 -1.0105681
v 1.8396653 -4.5700002E-08 -1.0454944
v -2.595623 -6.146911E-08 -1.4062489
v 2.880932 7.4508904E-08 1.7045646
v -1.8361402 4.812024E-08 1.100863
v 1.855603 4.764113E-08 1.0899018
v -2.6332822 6.622895E-08 1.5151421
v 1.761254 1.2116419E-07 2.7719133
v -1.1320449 8.023564E-08 1.8355776
v 1.1871867 8.023564E-08 1.8355772
v -1.2786592 1.2116419E-07 2.7719138
vt 0.74684936 0.97455865
vt 0.6821675 0.8067676
vt 0.30161247 0.8154891
vt 0.22896144 0.9694772
vt 0.99 0.7989288
vt 0.14797711 0.6822322
vt 0.80494356 0.6884393
vt 0.016692933 0.75255364
vt 0.99 0.19969189
vt 0.15167008 0.30698338
vt 0.807776 0.30893135
vt 0.01 0.23335667
vt 0.791008 0.01
vt 0.27680364 0.17640801
vt 0.6889833 0.17640801
vt 0.25074697 0.01
vn -0 1 0
vn -0 1 0
vn -0 1 0
vn -0 1 0
vn -0 1 0
vn -0 1 0
vn -0 1 0
vn -0 1 0
vn -0 1 0
vn -0 1 0
vn -0 1 0
vn -0 1 0
vn -0 1 0
vn -0 1 0
vn -0 1 0
vn -0 1 0
g CityWall_1_1_shadow_0
f 3/3/3 2/2/2 1/1/1
f 4/4/4 3/3/3 1/1/1
f 1/1/1 2/2/2 5/5/5
f 6/6/6 3/3/3 4/4/4
f 2/2/2 7/7/7 5/5/5
f 8/8/8 6/6/6 4/4/4
f 5/5/5 7/7/7 9/9/9
f 10/10/10 6/6/6 8/8/8
f 7/7/7 11/11/11 9/9/9
f 12/12/12 10/10/10 8/8/8
f 9/9/9 11/11/11 13/13/13
f 14/14/14 10/10/10 12/12/12
f 11/11/11 15/15/15 13/13/13
f 16/16/16 14/14/14 12/12/12
f 13/13/13 15/15/15 16/16/16
f 15/15/15 14/14/14 16/16/16
