g CityWall_1_5_shadow
v -1.4123632 -2.6471045E-16 4.3230495
v 1.6189324 -1.7811576E-16 2.9088511
v 2.267591 -2.6471042E-16 4.323049
v 4.32305 -1.398103E-16 2.2832756
v -1.6724771 -1.7489117E-16 2.8561895
v 2.9706044 -1.0018668E-16 1.6361727
v -2.69062 -1.1684743E-16 1.9082632
v 4.323049 1.08488046E-16 -1.7717443
v -4.323049 -9.8831804E-17 1.6140459
v 2.9179413 1.01354024E-16 -1.6552368
v -2.6116269 9.006771E-17 -1.4709173
v 1.6883032 2.6471048E-16 -4.32305
v -4.32305 1.030391E-16 -1.6827563
v 1.961238 1.6101008E-16 -2.6294942
v -1.4003882 1.604726E-16 -2.6207166
v -1.5736281 2.6471045E-16 -4.3230495
vt 0.66335285 0.9999999
vt 0.31275597 0.8364351
vt 0.23773278 1
vt 2.1197359E-07 0.7640817
vt 0.69343734 0.8303441
vt 0.15642276 0.6892383
vt 0.81119466 0.72070783
vt 1.0015529E-07 0.2950819
vt 0.9999999 0.6866788
vt 0.1625136 0.30855697
vt 0.8020582 0.329875
vt 0.30473226 1.9556705E-07
vt 0.9999999 0.30537382
vt 0.27316496 0.19587524
vt 0.66196746 0.19689032
vt 0.68200415 1.056184E-07
vn -0 1 0
vn -0 1 0
vn -0 1 0
vn -0 1 0
vn -0 1 0
vn -0 1 0
vn -0 1 0
vn -0 1 0
vn -0 1 0
vn -0 1 0
vn -0 1 0
vn -0 1 0
vn -0 1 0
vn -0 1 0
vn -0 1 0
vn -0 1 0
g CityWall_1_5_shadow_0
f 3/3/3 2/2/2 1/1/1
f 2/2/2 3/3/3 4/4/4
f 2/2/2 5/5/5 1/1/1
f 6/6/6 2/2/2 4/4/4
f 5/5/5 7/7/7 1/1/1
f 6/6/6 4/4/4 8/8/8
f 7/7/7 9/9/9 1/1/1
f 10/10/10 6/6/6 8/8/8
f 7/7/7 11/11/11 9/9/9
f 10/10/10 8/8/8 12/12/12
f 11/11/11 13/13/13 9/9/9
f 14/14/14 10/10/10 12/12/12
f 11/11/11 15/15/15 13/13/13
f 14/14/14 12/12/12 16/16/16
f 15/15/15 16/16/16 13/13/13
f 15/15/15 14/14/14 16/16/16
