g CityWall_1_2_shadow
v -1.5769556 -1.8093031E-16 2.9548163
v -1.2528093 -1.1343178E-16 1.8524815
v 1.0956478 -1.1488835E-16 1.876269
v 1.7141203 -1.8093031E-16 2.9548163
v -3.0435643 -9.713815E-17 1.5863863
v 2.0394943 -6.8309614E-17 1.1155807
v -2.0176141 -7.06551E-17 1.1538854
v 2.895228 -1.044575E-16 1.7059205
v -3.0435643 1.2157005E-16 -1.9853895
v 2.0245874 7.7452196E-17 -1.2648903
v -2.0279565 7.2750766E-17 -1.1881102
v 2.895228 1.0130841E-16 -1.6544919
v -1.9244789 1.9009427E-16 -3.104475
v 1.1789786 1.2737716E-16 -2.080227
v -1.0147781 1.2737716E-16 -2.080227
v 1.4095458 1.9009427E-16 -3.104475
vt 0.01 0.733309
vt 0.18828623 0.68088317
vt 0.18443896 0.30105525
vt 0.01 0.20102657
vt 0.23132315 0.970511
vt 0.30746892 0.14840215
vt 0.30127373 0.80457896
vt 0.2119903 0.0100000305
vt 0.80900455 0.9705111
vt 0.6924746 0.15081315
vt 0.6800565 0.80625165
vt 0.7554868 0.01
vt 0.98999995 0.7895157
vt 0.8243431 0.28757775
vt 0.8243431 0.6423852
vt 0.98999995 0.25028697
vn -0 1 0
vn -0 1 0
vn -0 1 0
vn -0 1 0
vn -0 1 0
vn -0 1 0
vn -0 1 0
vn -0 1 0
vn -0 1 0
vn -0 1 0
vn -0 1 0
vn -0 1 0
vn -0 1 0
vn -0 1 0
vn -0 1 0
vn -0 1 0
g CityWall_1_2_shadow_0
f 3/3/3 2/2/2 1/1/1
f 4/4/4 3/3/3 1/1/1
f 1/1/1 2/2/2 5/5/5
f 6/6/6 3/3/3 4/4/4
f 2/2/2 7/7/7 5/5/5
f 8/8/8 6/6/6 4/4/4
f 5/5/5 7/7/7 9/9/9
f 10/10/10 6/6/6 8/8/8
f 7/7/7 11/11/11 9/9/9
f 12/12/12 10/10/10 8/8/8
f 9/9/9 11/11/11 13/13/13
f 14/14/14 10/10/10 12/12/12
f 11/11/11 15/15/15 13/13/13
f 16/16/16 14/14/14 12/12/12
f 13/13/13 15/15/15 16/16/16
f 15/15/15 14/14/14 16/16/16
