g CityWall_1_4_shadow
v 1.6326469 2.1798916E-16 -3.560033
v -1.863448 1.8679493E-16 -3.0505927
v -2.2027042 2.1768962E-16 -3.5551414
v -3.5824533 1.3081144E-16 -2.136313
v 1.4742912 1.8601978E-16 -3.0379336
v 3.3417268 1.1585285E-16 -1.8920207
v -3.040347 1.1025299E-16 -1.800568
v -3.5858715 -1.1243349E-16 1.8361781
v 2.8969653 1.040522E-16 -1.6993014
v 3.3417263 -1.1198646E-16 1.8288778
v -1.4137365 1.4584147E-16 -2.381772
v 1.2643777 1.4364177E-16 -2.345848
v -2.3217416 8.3001096E-17 -1.3555107
v 2.4328313 -2.2612833E-17 -1.4438362
v -3.0373807 -9.933344E-17 1.6222382
v -2.3103116 -8.1968265E-17 1.3386433
v -1.9431251 -2.088252E-16 3.4103744
v 2.9154432 -1.03383826E-16 1.688386
v 1.8252901 -2.088252E-16 3.4103744
v 2.4758036 4.8388387E-09 1.6128523
v -1.7224976 -1.778975E-16 2.9052866
v -1.4300377 -1.3690028E-16 2.2357514
v 1.6461692 2.3327535E-15 2.283544
v 1.5871814 -1.7915586E-16 2.9258373
vt 0.99 0.250287
vt 0.9183756 0.74181825
vt 0.98931235 0.78951573
vt 0.789833 0.9835007
vt 0.91659576 0.2725509
vt 0.7554869 0.01
vt 0.7426292 0.90728366
vt 0.23132314 0.9839813
vt 0.72839165 0.07253093
vt 0.2323495 0.010000054
vt 0.8243432 0.6785913
vt 0.8192924 0.30206355
vt 0.6800566 0.8062517
vt 0.6924746 0.1554208
vt 0.2614019 0.90686655
vt 0.30127373 0.8046447
vt 0.01 0.7530204
vt 0.25210187 0.06993307
vt 0.01 0.22320247
vt 0.27828526 0.14937916
vt 0.08101251 0.72200143
vt 0.17514539 0.6808832
vt 0.16842599 0.30105528
vt 0.078123175 0.25667918
vn -0 1 0
vn -0 1 0
vn -0 1 0
vn -0 1 0
vn -0 1 0
vn -0 1 0
vn -0 1 0
vn -0 1 0
vn -0 1 0
vn -0 1 0
vn -0 1 0
vn -0 1 0
vn -0 1 0
vn -0 1 0
vn -0 1 0
vn -0 1 0
vn -0 1 0
vn -0 1 0
vn -0 1 0
vn -0 1 0
vn -0 1 0
vn -0 1 0
vn -0 1 0
vn -0 1 0
g CityWall_1_4_shadow_0
f 3/3/3 2/2/2 1/1/1
f 2/2/2 3/3/3 4/4/4
f 2/2/2 5/5/5 1/1/1
f 1/1/1 5/5/5 6/6/6
f 7/7/7 2/2/2 4/4/4
f 7/7/7 4/4/4 8/8/8
f 5/5/5 9/9/9 6/6/6
f 6/6/6 9/9/9 10/10/10
f 5/5/5 2/2/2 11/11/11
f 11/11/11 2/2/2 7/7/7
f 12/12/12 5/5/5 11/11/11
f 9/9/9 5/5/5 12/12/12
f 13/13/13 11/11/11 7/7/7
f 14/14/14 9/9/9 12/12/12
f 15/15/15 7/7/7 8/8/8
f 13/13/13 7/7/7 15/15/15
f 16/16/16 13/13/13 15/15/15
f 15/15/15 8/8/8 17/17/17
f 9/9/9 18/18/18 10/10/10
f 18/18/18 9/9/9 14/14/14
f 10/10/10 18/18/18 19/19/19
f 20/20/20 18/18/18 14/14/14
f 16/16/16 15/15/15 21/21/21
f 21/21/21 15/15/15 17/17/17
f 22/22/22 16/16/16 21/21/21
f 22/22/22 21/21/21 23/23/23
f 19/19/19 24/24/24 17/17/17
f 18/18/18 24/24/24 19/19/19
f 24/24/24 18/18/18 20/20/20
f 23/23/23 24/24/24 20/20/20
f 24/24/24 21/21/21 17/17/17
f 21/21/21 24/24/24 23/23/23
