g CityWall_1_3_shadow
v 3.4410374 -7.4963424E-08 -1.7149649
v 3.4410386 9.3248076E-08 2.1332657
v 2.8164186 7.466202E-08 1.7080666
v 2.0676935 1.45951E-07 3.3389685
v 2.7891748 -6.4881036E-08 -1.4843063
v 1.6932706 -1.4373883E-07 -3.2883613
v 1.65634 1.220739E-07 2.7927237
v -1.5243843 1.4595096E-07 3.3389697
v 2.17918 5.5700486E-08 1.2742776
v 2.1241431 -5.459497E-08 -1.248988
v 1.2366765 9.771443E-08 2.2354438
v 1.3440354 -9.4598136E-08 -2.1641533
v -1.3371556 1.2207386E-07 2.7927246
v -1.1461446 9.771437E-08 2.2354445
v -3.1250587 7.766449E-08 1.7767583
v 1.5203991 -1.1941418E-07 -2.7318783
v -1.5325917 -9.5718434E-08 -2.1897817
v -2.6567574 6.858217E-08 1.5689785
v -2.2840397 5.9316363E-08 1.3570011
v -2.2687664 -6.496208E-08 -1.4861577
v -1.5687373 -1.1996876E-07 -2.7445638
v -1.8525342 -1.4373889E-07 -3.2883606
v -3.1250591 -8.059295E-08 -1.8437496
v -2.6491973 -6.946361E-08 -1.5891405
vt 0.757338 0.010000176
vt 0.18829043 0.01
vt 0.2511657 0.10236413
vt 0.01000014 0.21307999
vt 0.7232299 0.10639274
vt 0.98999995 0.26844683
vt 0.090774715 0.27390784
vt 0.01 0.74424946
vt 0.31531116 0.19659421
vt 0.6884327 0.20473264
vt 0.1731811 0.33596453
vt 0.8237605 0.3200891
vt 0.09077461 0.71656346
vt 0.17318104 0.6883182
vt 0.2410081 0.9809452
vt 0.90771145 0.29400975
vt 0.8275502 0.7079945
vt 0.27173302 0.9116964
vt 0.30307862 0.84104854
vt 0.7003217 0.83879006
vt 0.90958726 0.75080806
vt 0.9899999 0.7927738
vt 0.7763816 0.9809453
vt 0.7387319 0.9105784
vn -0 1 0
vn -0 1 0
vn -0 1 0
vn -0 1 0
vn -0 1 0
vn -0 1 0
vn -0 1 0
vn -0 1 0
vn -0 1 0
vn -0 1 0
vn -0 1 0
vn -0 1 0
vn -0 1 0
vn -0 1 0
vn -0 1 0
vn -0 1 0
vn -0 1 0
vn -0 1 0
vn -0 1 0
vn -0 1 0
vn -0 1 0
vn -0 1 0
vn -0 1 0
vn -0 1 0
g CityWall_1_3_shadow_0
f 3/3/3 2/2/2 1/1/1
f 2/2/2 3/3/3 4/4/4
f 5/5/5 3/3/3 1/1/1
f 5/5/5 1/1/1 6/6/6
f 3/3/3 7/7/7 4/4/4
f 4/4/4 7/7/7 8/8/8
f 9/9/9 3/3/3 5/5/5
f 7/7/7 3/3/3 9/9/9
f 10/10/10 9/9/9 5/5/5
f 11/11/11 7/7/7 9/9/9
f 10/10/10 5/5/5 12/12/12
f 7/7/7 13/13/13 8/8/8
f 13/13/13 7/7/7 11/11/11
f 14/14/14 13/13/13 11/11/11
f 8/8/8 13/13/13 15/15/15
f 5/5/5 16/16/16 12/12/12
f 16/16/16 5/5/5 6/6/6
f 12/12/12 16/16/16 17/17/17
f 18/18/18 13/13/13 14/14/14
f 13/13/13 18/18/18 15/15/15
f 19/19/19 18/18/18 14/14/14
f 19/19/19 20/20/20 18/18/18
f 21/21/21 16/16/16 6/6/6
f 16/16/16 21/21/21 17/17/17
f 22/22/22 21/21/21 6/6/6
f 21/21/21 22/22/22 23/23/23
f 24/24/24 23/23/23 15/15/15
f 18/18/18 24/24/24 15/15/15
f 20/20/20 24/24/24 18/18/18
f 20/20/20 17/17/17 24/24/24
f 24/24/24 21/21/21 23/23/23
f 17/17/17 21/21/21 24/24/24
